<?xml version="1.0" standalone="no"?>
<!DOCTYPE svg PUBLIC "-//W3C//DTD SVG 20010904//EN"
 "http://www.w3.org/TR/2001/REC-SVG-20010904/DTD/svg10.dtd">
<svg version="1.0" xmlns="http://www.w3.org/2000/svg"
 width="512.000000pt" height="512.000000pt" viewBox="0 0 512.000000 512.000000"
 preserveAspectRatio="xMidYMid meet">

<g transform="translate(0.000000,512.000000) scale(0.100000,-0.100000)"
fill="#000000" stroke="none">
<path d="M1615 5109 c-484 -66 -875 -381 -1039 -837 -93 -260 -93 -572 2 -839
15 -43 129 -276 254 -518 361 -704 410 -804 477 -995 81 -232 104 -313 141
-488 166 -785 356 -1212 612 -1376 191 -122 257 -39 188 234 -57 226 -61 355
-20 635 37 255 120 667 145 722 23 52 65 68 170 67 87 -1 94 -3 215 -58 142
-65 192 -107 235 -193 74 -152 91 -503 54 -1118 -13 -219 -10 -261 25 -302 21
-24 32 -28 93 -31 109 -6 143 13 250 143 156 189 232 298 288 410 95 192 138
393 174 810 29 335 54 480 126 740 99 354 250 707 450 1055 197 340 212 756
40 1106 -256 524 -839 779 -1400 612 -38 -11 -122 -44 -186 -74 -164 -77 -231
-74 -338 14 -157 131 -366 229 -563 267 -104 20 -301 27 -393 14z"/>
</g>
</svg>
